# xmcd
#
# Track frame offsets: 
#        299
#        58739
#        116161
#        142016
#        158389
#        199722
#        245769
#        266061
#        287189
#
# Disc length: 4286 seconds
#
# Revision: 10
# Processed by: cddbd v1.5.2PL0 Copyright (c) Steve Scherf et al.
# Submitted via: ExactAudioCopy v0.99pb5
#
DISCID=8c10bb09
DTITLE=Kurt Masur, Gewandhausorchester Leipzig - Beethoven - Symphonie
DTITLE=s Nos. 6 and 8
DYEAR=1974
DGENRE=Symphony
TTITLE0=01. Symphony No.6 in F, Op.68 -"Pastoral" - 1. Erwachen heiter
TTITLE0=er Empfindungen bei der Ankunft auf dem Lande: Allegro ma non 
TTITLE0=tro
TTITLE1=02. Symphony No.6 in F, Op.68 -"Pastoral" - 2. Szene am Bach: 
TTITLE1=(Andante molto mosso)
TTITLE2=03. Symphony No.6 in F, Op.68 -"Pastoral" - 3. Lustiges Zusamm
TTITLE2=ensein der Landleute (Allegro)
TTITLE3=04. Symphony No.6 in F, Op.68 -"Pastoral" - 4. Gewitter, Sturm
TTITLE3=(Allegro)
TTITLE4=05. Symphony No.6 in F, Op.68 -"Pastoral" - 5. Hirtengesang. F
TTITLE4=rohe und dankbare Gef¨¹hle nach dem Sturm: Allegretto
TTITLE5=06. Symphony No.8 in F, Op.93 - 1. Allegro vivace e con brio
TTITLE6=07. Symphony No.8 in F, Op.93 - 2. Allegretto scherzando
TTITLE7=08. Symphony No.8 in F, Op.93 - 3. Tempo di menuetto
TTITLE8=09. Symphony No.8 in F, Op.93 - 4. Allegro vivace
EXTD=YEAR: 1974
EXTT0=
EXTT1=
EXTT2=
EXTT3=
EXTT4=
EXTT5=
EXTT6=
EXTT7=
EXTT8=
PLAYORDER=
